<?xml version="1.0" standalone="no"?>
<!DOCTYPE svg PUBLIC "-//W3C//DTD SVG 20010904//EN"
 "http://www.w3.org/TR/2001/REC-SVG-20010904/DTD/svg10.dtd">
<svg version="1.0" xmlns="http://www.w3.org/2000/svg"
 width="1024.000000pt" height="1024.000000pt" viewBox="0 0 1024.000000 1024.000000"
 preserveAspectRatio="xMidYMid meet">

<g transform="translate(0.000000,1024.000000) scale(0.100000,-0.100000)"
fill="#000000" stroke="none">
<path d="M3093 10007 c-7 -7 -31 -25 -54 -42 -74 -53 -152 -136 -216 -230 -51
-75 -112 -137 -132 -133 -10 2 -16 16 -16 38 -3 59 -16 129 -26 135 -5 4 -9
15 -9 26 0 25 -12 24 -37 -3 -34 -38 -52 -82 -64 -160 -6 -40 -17 -87 -25
-105 -8 -17 -14 -34 -14 -38 0 -4 -14 -25 -31 -46 -32 -41 -110 -88 -294 -179
-60 -30 -114 -58 -120 -63 -5 -4 -39 -29 -75 -55 -131 -94 -258 -222 -315
-316 -27 -45 -76 -129 -116 -200 -19 -33 -59 -85 -89 -116 -30 -31 -62 -69
-70 -86 -8 -16 -25 -40 -37 -54 -13 -14 -23 -33 -23 -42 0 -10 0 -21 -1 -25
-2 -19 20 -10 57 21 l39 34 -8 -72 c-19 -167 -40 -308 -62 -406 -13 -58 -22
-106 -20 -108 2 -2 21 8 44 22 22 14 43 26 46 26 14 0 -54 -115 -136 -230 -47
-66 -144 -249 -136 -256 2 -3 31 0 63 5 33 5 60 8 62 7 1 -2 -5 -23 -13 -47
-9 -24 -34 -116 -56 -204 -51 -208 -82 -299 -125 -370 -19 -32 -37 -68 -40
-80 -10 -42 14 -35 49 12 38 52 127 142 127 129 0 -4 -5 -16 -11 -27 -5 -11
-12 -71 -14 -133 -3 -96 -1 -120 15 -153 10 -21 26 -64 35 -96 16 -55 16 -64
-4 -195 -12 -75 -28 -164 -36 -197 -8 -33 -17 -80 -20 -105 -4 -25 -13 -72
-20 -105 -41 -180 -68 -292 -75 -305 -9 -16 -107 -56 -127 -52 -20 4 -119 -46
-171 -87 -27 -21 -59 -42 -73 -46 -19 -6 -170 -82 -268 -136 -36 -19 -273
-129 -279 -129 -4 0 -44 -19 -89 -42 l-83 -42 0 -1547 0 -1546 58 -20 c98 -34
195 -62 252 -73 30 -5 76 -14 102 -20 82 -16 208 -30 368 -40 148 -9 248 -5
428 18 58 8 63 7 67 -12 6 -30 25 -541 25 -662 l0 -101 -143 -48 c-149 -50
-317 -122 -317 -136 0 -8 74 15 145 46 76 33 290 108 346 120 30 7 71 17 90
23 100 32 266 76 434 114 50 11 155 38 235 60 80 22 177 49 215 60 39 10 95
26 125 34 73 20 210 50 340 74 58 10 148 29 200 40 52 12 115 26 140 30 25 5
77 18 115 29 344 99 449 128 525 145 30 7 71 18 90 24 19 6 73 23 120 37 74
22 93 33 150 85 36 33 73 62 83 66 9 3 17 11 17 18 0 11 100 86 114 86 3 0 27
13 54 29 27 16 77 39 110 51 33 12 98 44 143 71 45 27 88 49 94 49 7 0 18 7
25 15 7 8 16 15 21 15 5 0 28 9 52 19 23 11 71 27 107 36 35 9 76 23 90 30 16
8 32 10 40 5 8 -5 18 -6 22 -3 5 2 20 -2 33 -11 30 -20 35 -20 35 -1 0 8 -12
18 -27 22 -46 13 -165 7 -213 -9 -46 -16 -237 -107 -320 -152 -126 -68 -111
-65 -250 -41 -330 59 -408 118 -441 332 -9 63 -10 100 -1 165 7 46 12 99 12
119 0 41 41 213 66 274 39 98 99 208 121 222 30 20 130 14 368 -22 60 -9 111
-13 112 -8 5 14 160 -3 181 -20 8 -6 12 -6 12 1 0 6 -17 16 -37 21 -340 89
-321 85 -463 86 -90 0 -145 -4 -166 -13 -37 -16 -80 -73 -119 -157 -15 -33
-35 -78 -45 -100 -11 -22 -26 -76 -36 -120 -9 -44 -20 -98 -25 -120 -29 -138
-30 -372 -1 -409 5 -6 15 -28 22 -49 7 -23 36 -63 69 -96 47 -48 67 -61 126
-79 81 -25 257 -62 298 -62 41 0 32 -18 -20 -41 -68 -29 -140 -76 -198 -130
-140 -129 -140 -129 -236 -159 -52 -16 -112 -33 -134 -39 -22 -5 -65 -16 -95
-24 -30 -8 -109 -29 -175 -46 -66 -18 -151 -42 -190 -55 -84 -28 -136 -41
-235 -61 -41 -9 -100 -22 -130 -30 -70 -18 -232 -52 -286 -60 l-42 -6 -7 57
c-7 61 3 558 14 633 5 39 10 46 41 57 19 7 55 13 80 13 25 1 65 10 89 21 l44
20 -6 65 c-4 36 -11 82 -17 103 -5 20 -28 117 -51 215 -64 283 -78 435 -88
967 -8 364 -11 415 -30 500 -12 52 -26 104 -31 115 -60 139 -85 180 -157 257
-42 46 -95 96 -117 111 -61 43 -237 123 -364 167 -47 17 -87 32 -90 35 -2 2 9
17 25 32 78 74 160 180 228 292 21 35 -17 -4 -66 -69 -29 -39 -67 -79 -85 -89
-19 -11 -34 -30 -38 -47 -7 -32 -111 -128 -185 -172 -40 -24 -45 -24 -99 -13
-61 13 -90 25 -194 76 -136 68 -282 191 -342 288 -11 18 -33 54 -49 78 -113
179 -170 307 -165 367 3 31 8 36 48 51 37 14 49 25 71 66 23 44 56 172 88 335
6 30 24 120 40 200 16 80 32 177 36 215 8 79 25 122 63 161 43 43 96 61 267
88 88 14 203 37 255 51 240 62 229 61 247 43 15 -15 14 -19 -13 -45 -17 -15
-39 -34 -51 -42 -12 -8 -20 -18 -17 -22 7 -12 113 64 114 82 0 17 -60 79 -77
79 -18 0 -42 73 -58 182 -14 94 -14 121 1 298 17 208 19 217 92 345 19 33 51
77 71 99 46 50 142 96 199 96 79 0 168 -54 204 -123 40 -80 18 -279 -34 -302
-34 -16 -33 -33 4 -43 91 -23 2 -163 -122 -191 -62 -14 -70 -14 -70 8 0 26 46
169 63 195 24 36 90 243 84 260 -12 30 -24 16 -30 -31 -3 -27 -15 -70 -27 -98
-37 -85 -88 -237 -101 -305 -7 -36 -20 -75 -29 -87 -23 -30 -14 -78 19 -104
23 -19 36 -21 116 -17 87 5 159 24 300 82 63 26 75 32 166 76 75 36 89 40 111
30 57 -26 89 24 67 107 -6 26 -12 77 -13 112 l-1 65 64 37 c37 21 70 49 79 65
8 16 20 38 26 49 7 12 11 89 12 197 l1 177 34 57 c58 96 213 213 370 279 221
92 306 142 409 240 111 106 143 130 186 139 32 7 213 -31 279 -58 40 -17 85
-74 85 -108 0 -32 -59 -110 -112 -149 -23 -16 -37 -29 -32 -30 24 -3 67 5 154
27 287 72 468 91 582 59 97 -26 135 -52 161 -106 13 -29 30 -49 42 -51 26 -4
81 -79 97 -129 14 -47 3 -118 -30 -190 -11 -24 -23 -55 -27 -69 -4 -14 -11
-29 -15 -35 -19 -26 -102 -200 -139 -293 -23 -57 -51 -119 -62 -139 -11 -19
-38 -69 -60 -112 -21 -42 -52 -97 -67 -122 -29 -50 -193 -255 -263 -329 -63
-67 -140 -187 -167 -260 l-24 -65 4 -435 3 -435 -27 -52 c-38 -72 -56 -82
-121 -71 -62 11 -81 22 -169 101 -74 65 -120 129 -139 195 -14 49 -24 59 -59
62 -44 4 -46 0 -12 -20 17 -11 32 -27 32 -35 0 -27 30 -77 88 -148 54 -67 55
-68 49 -119 -7 -59 -28 -85 -78 -98 -19 -5 -52 -14 -74 -20 -22 -6 -58 -15
-80 -21 -22 -5 -50 -15 -63 -21 -52 -27 -234 28 -300 92 -16 15 -36 31 -44 36
-8 5 -55 45 -103 89 -126 116 -242 297 -280 439 -17 63 -29 77 -51 57 -5 -5
-45 -23 -89 -41 -89 -35 -145 -67 -145 -81 0 -14 28 -4 128 42 46 22 87 39 90
39 4 0 7 -66 7 -147 0 -162 4 -233 15 -248 4 -5 10 -30 14 -55 4 -25 19 -85
35 -135 26 -81 36 -97 96 -162 51 -55 78 -77 116 -90 27 -10 48 -21 47 -25 -2
-3 -29 -29 -61 -57 -46 -40 -74 -56 -133 -73 -41 -12 -74 -24 -74 -28 0 -3 17
-14 37 -25 20 -11 39 -26 41 -34 3 -8 0 -11 -7 -7 -17 11 -13 -3 10 -35 18
-26 20 -34 9 -60 -17 -41 -51 -65 -118 -85 -163 -48 -420 1 -571 109 -25 18
-80 53 -121 78 -93 55 -163 99 -216 139 -23 16 -44 30 -48 30 -4 0 -39 22 -79
49 -83 56 -354 193 -440 222 -69 23 -100 20 -42 -5 97 -41 148 -65 265 -125
69 -35 150 -80 180 -99 30 -20 56 -37 58 -38 2 -1 -1 -13 -8 -26 -10 -21 -10
-21 3 -5 8 9 17 17 20 17 4 0 33 -17 64 -37 32 -21 66 -42 75 -48 68 -40 177
-108 251 -157 98 -64 154 -91 236 -113 31 -9 65 -18 76 -21 11 -3 71 -8 132
-11 101 -5 119 -3 170 17 80 32 123 59 123 77 0 9 10 31 21 50 14 22 18 38 12
44 -14 14 57 156 94 190 15 14 42 33 58 42 35 18 143 52 200 63 58 10 164 50
189 71 11 9 35 29 51 44 17 15 50 32 75 37 79 19 188 50 208 61 24 13 47 47
55 83 l7 27 44 -25 c51 -28 130 -54 168 -54 37 0 82 50 109 123 20 54 21 68
14 205 -10 205 -7 606 5 693 7 49 21 92 41 129 32 56 100 153 128 181 94 94
257 301 300 381 51 96 151 296 151 302 0 8 67 156 92 201 12 22 43 89 69 148
l47 108 18 -38 c26 -53 66 -58 93 -11 25 43 53 70 61 61 15 -17 44 -193 43
-261 0 -55 -5 -77 -18 -92 -10 -11 -16 -22 -13 -25 12 -12 61 17 107 63 39 38
51 58 60 101 15 70 14 175 -3 238 -13 48 -27 77 -119 243 -20 36 -37 68 -37
73 0 4 15 0 33 -9 34 -17 117 -93 117 -107 0 -4 17 -31 39 -60 63 -85 73 -111
78 -218 3 -55 10 -99 14 -99 5 0 26 18 48 40 69 70 103 198 81 305 -11 55 -65
170 -94 205 -7 8 -30 45 -50 82 -21 37 -62 92 -93 124 -59 59 -54 62 35 21 26
-12 52 -22 58 -22 40 -1 189 -150 215 -215 6 -13 13 -27 17 -30 12 -8 41 -82
52 -130 15 -68 12 -113 -10 -161 -11 -24 -19 -60 -18 -79 0 -27 2 -30 5 -10 3
14 21 47 40 73 34 46 35 50 31 120 -3 62 -11 85 -55 174 -66 132 -103 184
-183 262 -128 125 -208 183 -330 241 -84 40 -189 94 -187 96 5 4 99 -15 171
-35 98 -26 138 -27 159 -3 16 17 14 22 -31 73 -77 89 -80 93 -57 86 38 -12 48
7 18 34 -46 40 -146 115 -178 133 -27 15 -28 16 -5 11 92 -18 256 -43 259 -39
18 18 -118 74 -329 134 -41 12 -95 28 -119 36 -25 8 -63 15 -85 15 l-41 2 45
7 c132 23 250 42 293 47 44 5 48 8 45 31 -6 47 -54 61 -254 72 -296 17 -361
34 -285 75 41 23 95 71 85 77 -5 3 -36 -7 -68 -23 -93 -45 -140 -40 -380 42
-130 45 -229 87 -208 90 6 1 15 2 20 3 70 17 107 16 179 -4 43 -12 82 -26 87
-31 6 -5 21 -9 35 -9 15 0 53 -11 86 -25 117 -48 100 -13 -20 40 -33 15 -72
34 -87 42 -54 28 -179 38 -316 25 -110 -10 -137 -9 -197 5 l-70 16 40 18 c49
22 137 24 208 5 79 -22 137 -26 137 -12 0 29 -74 66 -131 66 -15 0 -30 4 -33
8 -3 5 9 6 27 4 24 -3 29 -1 21 7 -19 21 -238 39 -404 35 -140 -4 -153 -3
-130 11 14 8 32 14 41 15 23 0 92 30 86 36 -3 3 -29 1 -59 -4 -29 -6 -110 -13
-179 -16 -69 -3 -134 -8 -145 -11 -17 -6 -17 -6 -1 5 9 6 17 15 17 19 0 11
-55 4 -80 -9 -27 -14 -40 -12 -34 5 10 26 -20 26 -77 2 -56 -25 -143 -42 -133
-26 14 23 -10 24 -57 2 -28 -14 -53 -22 -55 -20 -8 8 48 111 70 129 22 19 71
24 80 9 4 -5 1 -11 -5 -13 -14 -5 -3 -48 12 -48 6 0 7 9 4 20 -5 14 -2 20 9
20 25 0 19 35 -9 50 -43 23 -82 14 -148 -34 -110 -81 -173 -131 -228 -184 -32
-30 -63 -52 -76 -52 -28 0 -53 36 -53 75 0 32 39 117 78 173 12 16 22 33 22
36 0 10 -14 6 -27 -7z m167 -4107 c0 -27 43 -123 102 -229 67 -122 211 -267
373 -377 44 -30 179 -74 227 -74 l21 0 -22 -24 c-13 -13 -48 -33 -79 -44 -69
-24 -282 -82 -300 -82 -7 0 -38 12 -68 26 -77 36 -178 155 -200 233 -8 31 -19
65 -24 77 -25 63 -41 195 -43 358 -1 96 1 169 5 163 4 -7 8 -19 8 -27z m169
-997 c-31 -56 -34 -57 -68 -32 -37 27 -39 39 -8 39 12 1 36 7 52 15 45 20 47
18 24 -22z m-2101 -147 c29 -31 124 -95 212 -142 92 -50 162 -75 225 -80 56
-5 64 -3 118 30 l59 36 59 -20 c32 -11 63 -20 68 -20 5 0 42 -15 83 -33 40
-19 109 -49 152 -68 67 -29 94 -48 171 -124 106 -104 152 -179 195 -317 44
-141 50 -206 61 -678 12 -530 24 -644 94 -914 29 -115 65 -282 65 -307 0 -33
-236 -63 -597 -75 -90 -2 -163 -2 -163 2 0 4 16 79 34 168 19 88 46 217 60
286 33 164 60 283 91 405 14 55 28 107 30 115 26 114 52 206 85 305 22 66 52
156 66 200 15 44 32 87 39 95 25 32 26 44 1 15 -35 -40 -48 -65 -86 -165 -17
-47 -38 -103 -47 -125 -8 -22 -23 -71 -33 -110 -11 -38 -26 -95 -34 -125 -41
-142 -60 -216 -72 -275 -3 -16 -12 -50 -20 -75 -7 -25 -16 -63 -19 -85 -3 -22
-12 -71 -20 -110 -9 -38 -29 -140 -45 -225 -41 -213 -47 -243 -90 -420 -52
-215 -89 -396 -146 -718 -11 -64 -21 -95 -33 -101 -28 -14 -191 -52 -200 -47
-5 3 -26 -1 -47 -10 -49 -21 -272 -84 -295 -84 -23 0 -27 54 -34 462 -6 308
-6 316 13 322 11 4 24 6 28 5 5 -1 31 1 59 6 50 8 76 11 108 14 9 0 17 6 17
12 0 8 -32 9 -112 4 l-111 -7 9 83 c5 46 9 273 9 504 1 282 5 428 12 445 24
53 100 333 184 670 6 25 22 79 35 121 25 81 29 109 15 109 -4 0 -16 -26 -26
-57 -9 -32 -32 -103 -50 -158 -34 -104 -51 -170 -85 -315 -10 -47 -28 -114
-38 -150 -16 -53 -21 -60 -25 -40 -36 170 -112 458 -122 469 -3 2 -7 2 -10 -1
-7 -6 12 -271 25 -353 5 -33 12 -82 15 -110 3 -27 12 -81 20 -120 19 -96 26
-396 19 -786 -5 -226 -10 -326 -18 -325 -6 0 -38 -6 -71 -14 -94 -22 -555 -18
-675 5 -45 9 -84 15 -130 20 -42 5 -149 30 -155 37 -4 4 20 140 28 158 7 16
38 147 63 267 12 58 18 182 24 522 5 245 10 469 13 496 7 82 37 264 57 355 74
326 66 300 144 488 46 112 79 178 119 237 22 33 43 62 47 65 4 3 13 16 20 29
22 42 71 103 167 207 12 13 26 30 30 36 4 7 57 60 116 117 l108 104 56 -54
c30 -30 67 -67 81 -83z m3072 -1646 c20 -6 21 -8 5 -8 -11 0 -29 3 -40 8 -25
11 1 11 35 0z m-1755 -1097 c-13 -51 -31 -505 -22 -583 11 -108 7 -145 -18
-145 -11 0 -23 -4 -26 -8 -3 -4 -37 -12 -75 -18 -38 -5 -80 -13 -94 -18 -14
-6 -65 -22 -115 -36 -49 -14 -108 -33 -130 -40 -22 -8 -69 -21 -105 -30 -36
-9 -76 -19 -88 -22 -24 -6 -24 -5 -18 63 4 38 11 87 16 109 6 22 15 74 20 115
10 75 23 139 61 298 11 45 22 90 24 100 2 9 13 59 24 109 12 51 21 95 21 98 0
3 55 5 123 6 67 1 176 7 242 14 182 18 168 19 160 -12z"/>
<path d="M2587 1344 c-4 -4 -7 -14 -7 -23 0 -11 3 -12 11 -4 6 6 10 16 7 23
-2 6 -7 8 -11 4z"/>
<path d="M5730 8700 c0 -5 5 -10 10 -10 6 0 10 5 10 10 0 6 -4 10 -10 10 -5 0
-10 -4 -10 -10z"/>
<path d="M5402 8070 c0 -19 2 -27 5 -17 2 9 2 25 0 35 -3 9 -5 1 -5 -18z"/>
<path d="M6151 7670 c-40 -33 -64 -60 -55 -60 15 0 147 119 133 120 -4 0 -39
-27 -78 -60z"/>
<path d="M4486 7429 c-21 -5 -56 -22 -78 -38 -51 -38 -128 -110 -128 -120 0
-4 48 -6 106 -3 107 5 153 -1 289 -39 39 -10 78 -19 88 -19 18 0 47 -11 133
-51 46 -21 76 -24 105 -9 26 14 24 48 -6 107 -29 59 -46 76 -105 101 -25 10
-65 28 -90 40 -85 38 -224 52 -314 31z"/>
<path d="M3102 7180 c0 -14 2 -19 5 -12 2 6 2 18 0 25 -3 6 -5 1 -5 -13z"/>
<path d="M4191 7079 c-58 -11 -182 -70 -234 -111 -87 -70 -166 -168 -167 -210
0 -19 -34 -25 -45 -8 -8 12 -55 13 -74 1 -16 -11 13 -25 144 -70 44 -15 112
-48 152 -72 197 -121 284 -168 341 -184 74 -22 79 -20 137 51 22 28 62 67 88
88 29 23 56 57 69 85 12 25 30 57 40 71 10 14 19 36 20 50 2 14 11 28 21 32
27 11 21 53 -17 111 -45 69 -69 91 -146 125 -99 45 -228 61 -329 41z m192 -24
c107 -19 195 -61 239 -116 40 -50 79 -144 46 -111 -17 17 -86 15 -142 -4 -52
-18 -143 -100 -171 -154 -23 -45 -104 -168 -114 -175 -11 -6 -211 95 -257 130
-36 27 -146 85 -163 85 -6 0 -11 8 -11 19 0 42 36 99 104 166 106 105 236 165
376 173 8 1 50 -5 93 -13z"/>
<path d="M8445 4476 c-77 -34 -135 -132 -135 -228 0 -45 -3 -58 -15 -58 -8 0
-15 -4 -15 -10 0 -20 -16 -10 -28 18 -53 118 -126 177 -230 188 -53 6 -61 4
-71 -13 -14 -28 -5 -33 28 -17 20 10 36 11 57 5 16 -5 41 -12 56 -15 40 -9 96
-62 124 -118 18 -36 21 -50 12 -53 -7 -2 -69 -6 -138 -8 -240 -9 -378 -40
-535 -119 -55 -28 -113 -60 -128 -71 l-29 -20 -22 24 c-12 13 -32 39 -45 57
-12 18 -40 41 -60 52 -32 16 -39 25 -43 57 -3 21 -16 62 -28 91 -28 65 -62 87
-109 71 -30 -11 -31 -13 -31 -67 0 -32 -7 -70 -15 -86 -19 -37 -19 -44 6 -100
11 -26 20 -64 18 -84 -4 -78 1 -102 30 -134 35 -40 51 -33 19 8 -27 34 -42
140 -21 148 14 6 18 36 6 36 -18 0 -45 79 -39 112 3 18 9 55 13 81 7 56 41 90
68 67 8 -7 15 -21 15 -31 0 -11 5 -19 10 -19 6 0 10 -11 10 -24 0 -13 7 -46
16 -74 14 -41 22 -51 47 -59 31 -8 107 -94 107 -120 0 -55 -89 -129 -188 -156
-54 -15 -67 -15 -95 -4 -46 20 -61 41 -46 65 15 24 -6 82 -46 129 l-27 30 -25
-21 c-13 -11 -46 -42 -74 -68 -27 -27 -54 -48 -60 -48 -18 0 44 -76 73 -89 20
-9 28 -20 28 -39 0 -24 1 -25 14 -7 12 17 18 18 69 6 42 -11 62 -11 87 -2 71
24 86 10 47 -43 -12 -17 -60 -108 -107 -202 l-85 -171 -70 -5 c-80 -6 -150
-36 -204 -90 -54 -53 -69 -100 -73 -233 -3 -104 -1 -117 15 -127 13 -7 17 -17
13 -33 -4 -16 3 -34 25 -61 43 -55 76 -84 94 -84 13 0 15 -8 9 -51 -4 -29 -2
-59 4 -72 18 -37 44 -128 39 -134 -3 -3 -14 5 -24 16 -9 12 -21 21 -25 21 -4
0 -33 18 -64 40 -32 22 -59 38 -62 35 -3 -2 15 -23 39 -45 24 -23 37 -39 29
-37 -8 2 -31 -2 -52 -9 -20 -7 -39 -10 -42 -7 -3 4 -6 44 -6 91 0 69 -4 91
-22 121 -33 54 -141 158 -185 176 -189 79 -347 101 -538 73 -63 -9 -126 -9
-271 0 -104 7 -205 17 -225 22 -20 6 -83 19 -140 30 -57 11 -149 29 -204 41
-55 11 -109 22 -120 25 -11 2 -32 7 -47 10 -32 7 -39 -10 -10 -24 15 -8 76
-23 107 -27 19 -3 130 -26 144 -31 9 -3 11 -8 4 -15 -6 -6 -24 -4 -53 6 -23 8
-52 17 -64 19 -12 3 -48 11 -80 20 -33 9 -62 14 -64 11 -3 -3 0 -5 7 -5 9 0
11 -9 7 -27 -15 -70 -27 -131 -31 -158 -2 -16 -7 -52 -10 -80 -4 -27 -11 -58
-16 -67 -5 -10 -14 -44 -20 -75 -6 -32 -18 -70 -27 -85 -19 -33 -71 -53 -115
-44 -25 5 -29 4 -19 -6 7 -7 31 -13 53 -13 35 0 46 6 80 42 21 23 39 52 39 64
0 12 9 52 20 90 11 37 25 98 30 136 13 100 31 197 36 202 7 8 192 -42 259 -69
44 -18 89 -30 114 -30 15 0 36 -7 47 -14 26 -19 163 -36 279 -36 105 0 143 4
208 24 27 8 49 10 53 5 5 -9 -3 -147 -10 -158 -2 -3 -9 -51 -16 -106 -6 -55
-21 -136 -32 -180 -25 -98 -23 -92 -32 -140 -4 -22 -16 -64 -27 -93 -10 -29
-19 -63 -19 -75 0 -12 -15 -69 -34 -127 -28 -88 -38 -108 -63 -122 -24 -14
-36 -16 -67 -7 -24 7 -148 9 -342 6 -251 -3 -302 -1 -293 10 6 7 15 13 20 13
5 0 47 18 94 41 69 32 93 50 120 87 19 26 35 51 35 55 0 4 -34 -22 -76 -57
-46 -40 -94 -71 -123 -81 -56 -18 -125 -83 -112 -104 8 -12 67 -14 347 -14
l337 1 101 -35 c108 -36 297 -73 376 -73 43 0 49 -3 54 -25 4 -14 4 -36 0 -50
-4 -15 -2 -25 5 -25 6 0 11 19 11 45 0 43 1 44 38 50 76 12 158 37 185 56 32
23 32 23 12 -24 -8 -20 -15 -56 -15 -79 l0 -43 47 -3 c45 -3 88 -26 78 -42 -3
-4 2 -13 10 -20 21 -17 20 13 -1 45 -11 17 -14 34 -9 57 8 40 44 118 54 118 4
0 12 -17 19 -37 l11 -38 -6 35 c-3 19 -10 44 -15 54 -10 18 -11 18 -29 -5 -11
-13 -27 -51 -38 -83 -10 -33 -24 -60 -32 -62 -8 -1 -21 -5 -30 -9 -10 -3 -24
1 -33 11 -29 28 -12 74 85 237 40 66 41 67 84 67 25 0 95 -7 157 -16 126 -17
134 -16 197 42 51 46 57 35 43 -78 -6 -46 -16 -130 -22 -188 -7 -58 -14 -111
-16 -119 -6 -18 -47 -7 -104 28 -73 45 -95 46 -148 11 -26 -17 -48 -26 -50
-20 -2 5 -8 10 -14 10 -6 0 -6 -6 2 -15 18 -21 26 -19 70 17 l40 31 84 -42
c46 -23 98 -43 115 -44 27 -2 31 -5 26 -22 -4 -11 -8 -31 -10 -44 -2 -13 -17
-38 -33 -55 -19 -19 -34 -51 -42 -85 -10 -44 -19 -57 -46 -73 -32 -19 -37 -38
-11 -38 8 0 8 3 -1 9 -11 7 -10 10 3 15 23 9 27 8 19 -5 -3 -6 0 -15 7 -20 12
-7 11 -11 -3 -25 -20 -21 -104 -26 -101 -7 2 8 -7 13 -20 13 -29 0 -57 29 -57
58 0 18 78 112 93 112 3 0 8 -12 12 -27 4 -16 10 -22 12 -16 6 17 -16 84 -35
106 -22 25 -36 21 -18 -5 9 -12 16 -29 16 -37 0 -8 -30 -43 -67 -78 -46 -42
-61 -62 -48 -61 14 2 21 -4 23 -20 2 -14 17 -32 38 -44 33 -19 45 -38 24 -38
-6 0 -39 15 -75 33 -52 27 -62 36 -52 46 10 10 7 10 -15 0 -33 -15 -30 -21 24
-48 89 -46 103 -54 111 -68 11 -18 28 -17 21 2 -4 10 0 15 13 15 10 0 28 7 40
15 12 9 24 11 27 6 7 -10 -15 -36 -45 -51 -10 -6 -19 -17 -19 -24 0 -7 -13
-32 -29 -57 -16 -24 -35 -61 -42 -81 -8 -24 -19 -38 -30 -38 -56 0 -212 -127
-269 -218 -30 -48 -52 -62 -159 -101 -44 -17 -101 -40 -125 -51 -25 -11 -48
-20 -51 -20 -4 0 -21 -11 -38 -23 -18 -13 -76 -47 -131 -76 -183 -96 -372
-259 -436 -373 l-32 -58 317 0 316 0 30 32 c17 18 47 54 67 80 20 27 39 48 43
48 4 0 31 30 60 67 70 90 239 254 319 311 36 25 67 48 70 52 3 3 34 26 70 51
66 47 150 89 177 89 8 0 35 19 59 43 51 48 99 77 130 77 12 0 41 7 65 16 24 8
73 21 108 29 55 11 68 11 99 -2 22 -9 52 -13 74 -10 21 3 38 1 38 -4 0 -5 -6
-9 -13 -9 -7 0 -20 -12 -29 -27 -31 -55 16 -130 100 -161 46 -17 134 -31 219
-36 67 -3 81 -2 76 10 -3 8 -1 14 4 14 12 0 53 -46 47 -54 -2 -3 1 -2 7 3 18
15 37 2 31 -22 -3 -12 -2 -19 3 -15 4 4 12 3 19 -2 58 -47 144 -102 286 -182
62 -35 160 -58 280 -65 83 -5 98 -8 89 -20 -19 -22 -7 -23 36 -3 22 11 48 19
57 20 9 0 19 3 22 8 2 4 -49 8 -115 10 -66 1 -131 7 -145 12 -14 6 -45 10 -70
10 -24 0 -44 5 -44 10 0 6 8 10 18 10 9 1 60 2 112 4 52 1 102 -1 111 -5 21
-10 101 10 92 24 -3 6 -1 7 5 3 7 -4 18 -4 25 1 6 4 18 8 26 10 8 1 18 9 23
17 5 9 15 16 22 16 7 0 34 17 61 37 38 30 59 39 104 44 53 5 54 8 4 25 -15 4
-8 14 34 54 60 57 73 79 103 180 29 99 24 166 -21 250 -43 80 -103 133 -214
186 -97 46 -192 67 -247 55 -28 -7 -78 1 -78 11 0 2 11 4 25 5 52 4 56 6 52
24 -3 9 -1 23 4 30 6 10 9 7 10 -11 1 -14 1 -29 0 -33 -1 -5 3 -6 9 -2 6 3 8
9 6 13 -2 4 2 12 9 19 11 10 14 10 18 0 2 -7 8 -9 12 -5 4 4 3 14 -4 22 -9 11
-8 15 4 20 8 3 15 12 15 21 0 8 7 15 15 15 8 0 15 5 15 11 0 5 -5 7 -12 3 -6
-4 -8 -3 -4 4 11 18 65 41 72 31 3 -5 17 -9 32 -10 73 -1 228 -15 239 -22 6
-4 14 -4 16 0 4 7 -5 95 -18 171 -3 17 -2 32 3 32 10 0 31 -107 62 -320 11
-80 27 -185 35 -235 20 -121 23 -149 35 -300 6 -71 14 -160 18 -197 6 -53 5
-65 -4 -57 -17 14 -111 39 -146 39 -48 0 -30 -18 30 -30 78 -16 120 -35 143
-64 11 -14 28 -27 38 -31 34 -11 186 -219 283 -388 18 -31 39 -57 46 -57 9 0
3 19 -19 58 -17 31 -39 71 -48 87 -50 90 -154 228 -238 315 l-53 56 -10 164
c-13 214 -45 479 -80 655 -6 28 -19 106 -29 175 -10 69 -22 132 -25 141 -5 11
9 27 51 56 80 56 195 185 245 275 l22 39 72 -6 72 -7 42 38 c52 47 75 92 90
175 20 111 -2 206 -56 238 -29 17 -33 24 -25 43 20 53 41 137 41 166 0 17 3
33 8 36 4 2 32 -4 62 -15 30 -10 81 -22 113 -25 31 -4 57 -10 57 -15 0 -24 35
-39 90 -39 48 0 64 5 89 25 31 27 55 82 49 112 -3 10 -8 -1 -12 -24 -6 -31
-18 -51 -44 -74 -33 -29 -39 -31 -86 -25 -31 3 -56 12 -63 23 -17 22 -16 33 0
33 7 0 22 7 33 16 18 15 18 15 -3 10 -13 -4 -33 -9 -44 -12 -21 -6 -21 -5 -5
17 9 13 16 31 16 41 0 24 16 23 34 -3 l14 -21 56 25 c65 30 71 20 25 -36 -17
-21 -29 -40 -26 -43 2 -3 21 15 41 39 24 30 36 54 36 76 0 17 4 31 9 31 5 0
11 7 15 15 10 27 -12 16 -52 -25 -49 -52 -101 -64 -125 -29 -9 12 -14 26 -11
31 3 4 2 14 -3 21 -4 6 -8 35 -8 62 0 28 -3 56 -5 64 -3 10 4 17 20 20 42 10
120 62 120 80 0 9 -12 33 -26 52 -14 19 -37 55 -50 81 -15 29 -40 59 -64 74
-35 23 -44 25 -65 16 -14 -7 -38 -32 -53 -57 -15 -25 -32 -45 -38 -45 -7 0
-31 -16 -54 -35 -23 -19 -46 -35 -50 -35 -11 0 -28 59 -86 293 -18 76 -74 195
-121 260 -58 82 -236 250 -316 299 -104 63 -233 124 -297 138 -30 6 -103 27
-162 46 -59 19 -114 34 -122 34 -17 0 -26 31 -26 96 0 82 59 161 138 183 67
20 146 -22 135 -71 -4 -21 -3 -21 7 -5 20 32 4 65 -45 87 -51 23 -87 25 -130
6z m-118 -398 c-3 -8 -6 -5 -6 6 -1 11 2 17 5 13 3 -3 4 -12 1 -19z m-170 -41
c4 -6 -2 -8 -18 -4 -13 4 -32 7 -42 7 -10 0 -16 4 -13 8 7 11 64 3 73 -11z
m-33 -48 c14 -11 26 -25 26 -30 0 -5 12 -28 27 -50 21 -33 47 -50 127 -91 56
-27 109 -57 120 -66 26 -24 46 -74 46 -119 1 -33 2 -36 12 -18 6 10 12 60 12
110 1 90 1 90 -41 154 -24 34 -37 61 -30 59 6 -3 50 -15 97 -28 178 -49 227
-73 377 -190 49 -38 184 -168 228 -220 37 -44 88 -132 116 -204 17 -45 37 -94
44 -111 53 -122 81 -311 72 -470 -21 -328 -38 -432 -96 -573 -16 -39 -28 -72
-25 -72 3 0 -21 -37 -52 -82 -168 -243 -369 -383 -725 -501 -180 -60 -249 -73
-444 -82 -202 -10 -365 7 -479 50 -52 19 -99 35 -106 35 -21 0 -203 98 -260
140 -149 108 -253 232 -291 343 l-18 52 26 33 c21 28 30 32 51 27 15 -4 42 -8
62 -11 108 -12 107 -12 114 -57 10 -59 30 -77 85 -77 34 0 64 9 111 35 36 19
73 38 83 41 9 4 17 13 17 22 0 13 -3 12 -20 -3 -11 -10 -20 -15 -20 -11 0 4
-7 0 -16 -8 -18 -18 -34 -21 -34 -5 0 5 -10 -1 -22 -15 -29 -31 -113 -44 -142
-22 -25 20 -36 106 -13 106 8 0 22 3 31 6 12 5 18 -2 22 -25 4 -17 10 -33 14
-36 10 -6 1 132 -11 169 -15 49 -10 51 29 13 43 -42 62 -48 38 -12 -18 28 -21
39 -6 30 6 -3 10 -4 10 -1 0 3 -14 13 -32 22 -24 12 -46 15 -97 10 -75 -8 -93
-16 -33 -16 31 0 44 -5 52 -19 15 -28 12 -51 -5 -51 -8 0 -15 -6 -15 -14 0 -8
7 -13 16 -12 30 2 26 -23 -7 -39 -26 -14 -47 -16 -108 -10 -123 11 -118 7
-126 82 -4 35 -4 67 -1 70 3 4 23 0 45 -7 28 -9 46 -10 67 -2 27 10 26 10 -21
11 -65 1 -119 28 -124 61 -3 23 -2 24 15 10 26 -21 85 -53 89 -48 2 2 -24 26
-58 53 -89 71 -106 92 -143 170 -39 80 -41 108 -19 258 10 64 25 119 40 149
14 26 25 52 25 58 0 5 11 33 24 62 14 29 44 103 67 163 68 175 269 463 408
584 123 106 272 190 374 210 28 6 68 15 87 20 19 5 96 9 171 10 124 1 139 -1
163 -20z m-1142 -28 c13 -15 15 -32 11 -80 l-6 -61 42 -17 c51 -20 53 -33 4
-33 -78 1 -203 62 -203 99 0 37 80 111 120 111 9 0 23 -9 32 -19z m141 -377
c7 -8 -16 -33 -25 -28 -9 6 1 34 11 34 4 0 10 -3 14 -6z m-153 -226 c-16 -22
-30 -49 -30 -59 0 -10 -4 -20 -9 -24 -19 -11 15 79 42 113 5 6 13 12 18 12 5
0 -4 -19 -21 -42z m-80 -38 c11 -7 -1 -10 -41 -10 -39 0 -70 -7 -104 -25 -39
-19 -45 -20 -29 -5 19 19 102 48 139 49 11 0 27 -4 35 -9z m-22 -26 c22 -6 29
-32 14 -49 -5 -6 -19 -38 -32 -73 -20 -55 -33 -75 -50 -77 -3 -1 -20 -9 -37
-18 -33 -17 -74 -15 -100 5 -12 10 -33 3 -33 -11 0 -4 23 -15 51 -24 44 -15
55 -15 84 -3 27 12 37 12 50 2 16 -12 16 -16 -4 -61 -12 -27 -33 -92 -46 -144
-14 -52 -29 -99 -34 -104 -15 -15 -111 81 -111 110 0 13 -7 35 -16 49 -12 18
-15 34 -9 62 4 20 10 62 14 92 5 44 10 57 28 65 12 5 28 23 34 40 21 52 59 94
107 120 52 26 57 28 90 19z m45 -49 c-3 -9 -8 -14 -10 -11 -3 3 -2 9 2 15 9
16 15 13 8 -4z m2831 -44 c21 -24 43 -56 51 -71 8 -15 21 -32 29 -39 28 -23
17 -42 -38 -66 -30 -13 -57 -29 -61 -34 -13 -21 -25 -11 -15 13 11 30 -3 73
-48 143 -33 52 -34 61 -5 95 20 23 43 12 87 -41z m-113 -48 c46 -51 78 -150
45 -137 -25 10 -27 -14 -3 -38 34 -33 53 -84 38 -102 -7 -8 -9 -25 -5 -40 4
-18 2 -26 -7 -26 -10 0 -10 -3 -1 -12 18 -18 14 -60 -7 -85 -19 -23 -58 -33
-45 -12 4 8 -1 9 -16 4 -23 -7 -110 12 -110 25 0 4 3 10 7 14 4 3 7 25 8 49 1
33 -6 51 -32 85 -35 47 -49 110 -39 166 5 25 21 46 57 77 27 23 51 40 53 38 2
-2 9 -14 15 -26 6 -13 18 -23 26 -23 9 0 15 -10 15 -26 0 -26 20 -54 40 -54
12 0 -32 84 -61 116 -10 11 -19 23 -19 27 0 15 17 6 41 -20z m-186 -229 c18
-97 19 -140 4 -253 -16 -124 -43 -178 -67 -135 -9 17 -4 64 7 64 3 0 6 24 7
52 1 96 13 453 15 458 1 3 6 -20 10 -50 5 -30 16 -92 24 -136z m-4230 22 c121
-30 264 -46 405 -47 l105 0 -55 -17 c-68 -20 -287 -22 -342 -3 -21 7 -65 16
-99 21 -33 5 -67 15 -76 22 -9 7 -30 13 -47 13 -21 0 -32 5 -34 18 -5 24 22
22 143 -7z m915 -47 c188 -46 243 -73 310 -149 76 -86 79 -92 91 -157 8 -42 8
-88 0 -166 -24 -221 -76 -375 -183 -534 -68 -102 -130 -140 -260 -158 l-46 -7
18 78 c10 44 31 129 48 189 69 250 92 422 92 674 0 247 -17 215 -23 -45 -8
-321 -14 -360 -111 -707 -13 -49 -27 -110 -31 -138 l-7 -49 -61 0 c-77 0 -250
36 -369 77 l-47 16 38 44 c45 51 56 84 137 403 40 163 98 547 89 599 l-7 40
39 4 c105 11 204 6 283 -14z m3280 -439 c0 -36 -2 -40 -25 -38 -14 1 -25 8
-25 16 0 7 5 10 10 7 6 -3 12 1 15 9 3 9 7 23 10 31 8 27 15 16 15 -25z
m-2724 -15 c6 -2 14 -18 18 -36 l6 -32 26 24 26 24 52 -57 c55 -59 76 -114 76
-199 0 -30 -4 -39 -17 -39 -13 0 -15 -3 -5 -8 9 -6 -1 -27 -37 -78 -72 -103
-112 -118 -233 -89 -34 8 -87 15 -115 15 -29 0 -53 1 -53 3 0 2 8 21 19 43 47
97 62 137 76 196 23 93 26 107 33 173 7 56 9 60 37 66 27 6 60 3 91 -6z m2805
-89 c21 -78 -26 -232 -88 -286 -38 -34 -64 -37 -117 -15 -31 13 -36 19 -30 38
3 12 15 31 25 43 11 11 16 24 12 29 -5 4 -3 6 2 2 6 -3 16 3 23 14 9 13 9 19
1 19 -7 0 -6 8 4 23 16 25 49 125 44 136 -2 3 7 17 20 30 l23 24 0 -34 c0 -19
-9 -53 -20 -77 -11 -23 -15 -40 -10 -37 18 11 43 71 45 109 6 74 44 64 66 -18z
m-2511 -907 c19 -9 76 -57 125 -105 l90 -88 -30 -6 c-16 -4 -48 -19 -70 -34
-36 -24 -37 -27 -17 -32 11 -4 28 -17 37 -30 15 -24 15 -27 -9 -55 -21 -24
-24 -34 -16 -49 16 -29 46 -41 128 -52 41 -5 84 -14 94 -19 22 -12 19 -46 -3
-40 -31 9 -64 6 -61 -6 3 -17 -8 -16 -50 2 -32 13 -41 12 -107 -10 -95 -33
-210 -35 -259 -5 -32 20 -32 20 -27 82 6 71 15 109 43 188 17 47 20 76 18 183
-1 70 0 130 3 132 2 3 20 -5 40 -17 20 -12 52 -29 71 -39z m1590 27 c0 -2 -7
-6 -15 -10 -8 -3 -15 -1 -15 4 0 6 7 10 15 10 8 0 15 -2 15 -4z m-55 -16 c-3
-5 -12 -10 -18 -10 -7 0 -6 4 3 10 19 12 23 12 15 0z m-895 -82 c50 -35 65
-78 76 -215 l7 -93 44 -24 c32 -18 66 -27 121 -31 42 -4 97 -10 122 -16 25 -5
70 -11 100 -13 111 -9 253 -29 360 -52 16 -3 21 -2 15 4 -12 11 -171 52 -205
52 -24 1 -25 1 -5 15 11 8 26 19 33 26 14 12 156 59 178 59 8 0 14 5 14 10 0
25 -186 -29 -243 -71 -56 -41 -63 9 -14 91 61 102 134 140 267 140 140 0 319
-109 382 -233 29 -58 30 -66 25 -147 -7 -108 -29 -173 -71 -205 -17 -13 -50
-41 -73 -62 -82 -75 -165 -114 -308 -144 -77 -16 -273 18 -410 71 -44 17 -93
36 -110 42 -16 6 -61 28 -100 48 -38 20 -83 44 -100 53 -38 20 -130 47 -160
47 -49 0 -168 31 -196 51 -33 23 -38 59 -15 114 8 18 12 36 8 39 -3 3 -1 6 4
6 6 0 15 -5 22 -12 17 -17 25 -3 11 19 -19 31 -91 71 -150 84 -90 19 -134 52
-98 75 17 10 128 -16 181 -43 60 -30 67 -29 37 3 -30 33 -67 52 -149 78 -42
14 -66 27 -68 38 -5 26 41 33 128 21 63 -10 78 -16 97 -39 38 -48 37 -19 -1
55 -20 38 -36 77 -36 85 0 31 57 48 144 45 l81 -4 3 28 c4 33 10 33 52 5z
m300 -103 c85 -3 162 -8 172 -11 33 -10 51 -55 51 -129 0 -103 -5 -120 -34
-118 -68 5 -89 8 -89 13 0 3 -19 5 -41 6 -29 0 -46 6 -57 20 -12 16 -14 16 -9
2 4 -10 2 -18 -3 -18 -6 0 -11 8 -11 18 -1 16 -2 16 -6 0 -2 -10 -12 -18 -21
-17 -11 0 -12 2 -4 6 26 11 10 20 -36 20 -73 0 -92 9 -92 43 0 16 5 32 10 35
18 11 10 51 -15 75 -14 13 -25 29 -25 35 0 18 23 35 40 30 8 -2 85 -7 170 -10z
m-577 -55 c5 -18 4 -18 -19 -3 -29 19 -30 23 -5 23 10 0 21 -9 24 -20z m-486
-362 c-9 -5 -20 -16 -25 -25 -8 -14 -11 -13 -22 6 -19 37 -7 52 31 39 26 -9
29 -12 16 -20z m1298 -393 l30 -13 -31 -1 c-17 -1 -37 6 -44 14 -16 20 3 20
45 0z"/>
<path d="M7460 3651 c-41 -8 -132 -53 -176 -86 -17 -13 -55 -51 -84 -85 l-53
-61 74 53 c41 29 116 73 167 97 88 42 97 44 185 44 63 0 104 -5 130 -16 46
-20 48 -9 3 20 -62 40 -153 52 -246 34z"/>
<path d="M8710 3506 c0 -2 8 -10 18 -17 15 -13 16 -12 3 4 -13 16 -21 21 -21
13z"/>
<path d="M8750 3438 c0 -11 16 -17 56 -22 71 -8 127 -36 187 -94 39 -39 47
-43 47 -26 0 31 -66 93 -129 122 -68 31 -161 42 -161 20z"/>
<path d="M7267 3306 c-48 -14 -91 -56 -123 -118 -21 -41 -28 -48 -46 -42 -14
4 -18 2 -14 -5 4 -6 14 -11 22 -11 8 0 14 -1 14 -2 0 -2 -6 -37 -14 -78 -14
-70 -13 -76 4 -95 10 -11 21 -31 25 -45 23 -86 34 -92 113 -65 41 15 83 11
136 -11 13 -5 17 -4 12 4 -4 6 -22 14 -41 18 -40 7 -44 23 -14 50 28 25 59 87
59 117 0 13 -7 38 -16 56 -16 32 -16 33 11 61 15 16 41 34 57 41 26 10 36 9
72 -9 39 -19 44 -25 60 -83 27 -94 10 -243 -36 -326 -22 -41 -7 -43 22 -4 36
52 51 111 53 216 2 95 0 103 -32 167 -48 97 -114 153 -195 166 -73 12 -80 12
-129 -2z m-64 -182 c-15 -31 -15 -36 -3 -45 11 -8 9 -9 -7 -4 -27 7 -29 -2 -7
-30 10 -14 13 -31 9 -55 -3 -20 -1 -48 4 -63 8 -20 7 -33 -2 -47 -23 -38 -26
-31 -41 108 -4 43 -4 43 16 25 l21 -18 -17 33 c-19 37 -11 78 21 114 24 26 25
22 6 -18z m33 0 c-3 -9 -6 -21 -6 -27 0 -8 -3 -8 -11 0 -13 13 -5 43 12 43 6
0 8 -7 5 -16z m98 -205 c-31 -34 -80 -59 -115 -59 -21 0 -21 1 -5 19 9 10 34
21 54 25 20 3 48 15 62 26 36 28 38 24 4 -11z"/>
<path d="M7030 3285 c-6 -8 -10 -19 -8 -26 2 -6 9 0 16 15 13 29 10 33 -8 11z"/>
<path d="M8465 3024 c-63 -33 -100 -68 -115 -108 -7 -17 -19 -45 -26 -63 -21
-47 -36 -140 -29 -174 7 -32 50 -89 67 -89 6 0 49 -17 97 -39 82 -36 141 -56
141 -47 0 2 -20 11 -45 20 -50 17 -80 40 -70 56 4 6 16 8 28 5 14 -4 17 -3 10
2 -9 7 -5 14 16 26 16 9 46 42 66 73 40 60 58 66 31 10 -18 -39 -19 -46 -8
-46 16 0 32 51 32 103 0 67 -16 124 -46 164 -13 17 -24 34 -24 37 0 20 162
-63 205 -104 17 -17 36 -30 41 -30 6 0 29 -23 52 -51 51 -62 55 -109 18 -183
-19 -38 -21 -46 -8 -44 33 6 57 68 57 148 0 65 -5 82 -30 125 -72 125 -222
223 -350 232 -50 3 -68 -1 -110 -23z m105 -159 c10 -13 10 -19 -5 -35 -22 -25
-41 -25 -54 -3 -21 39 31 72 59 38z m-30 -130 c0 -8 -6 -15 -14 -15 -17 0 -28
14 -19 24 12 12 33 6 33 -9z m15 -34 c3 -5 -5 -13 -17 -17 -13 -4 -26 -11 -29
-17 -4 -6 -13 -6 -25 1 -16 9 -15 12 16 25 43 19 47 19 55 8z m-117 -20 c10
-6 7 -10 -12 -13 -25 -5 -33 1 -19 15 8 9 15 9 31 -2z"/>
<path d="M7411 2827 c2 -2 20 -14 39 -26 l35 -23 -30 26 c-16 14 -34 26 -39
26 -5 0 -7 -1 -5 -3z"/>
<path d="M6880 2625 c-7 -9 -10 -18 -7 -21 3 -3 10 4 17 15 13 25 8 27 -10 6z"/>
<path d="M8590 2631 c0 -5 -11 -12 -25 -15 -14 -4 -25 -13 -25 -21 0 -20 13
-19 44 6 26 21 34 39 16 39 -5 0 -10 -4 -10 -9z"/>
<path d="M7784 2548 c-45 -22 -74 -62 -74 -100 1 -22 2 -21 17 7 22 43 53 74
93 96 48 25 15 23 -36 -3z"/>
<path d="M9035 2555 c-16 -8 -70 -28 -120 -45 -49 -16 -74 -27 -55 -24 49 8
149 41 190 64 41 22 29 26 -15 5z"/>
<path d="M7343 2467 c-1 -42 -49 -147 -67 -147 -8 0 -28 11 -44 25 -31 26 -52
32 -52 15 0 -5 6 -10 14 -10 7 0 19 -6 25 -14 7 -8 27 -18 44 -21 72 -14 72
-14 113 -144 35 -107 79 -191 140 -265 63 -76 157 -144 141 -102 -5 12 0 12
26 5 18 -6 69 -14 114 -19 110 -12 190 6 323 72 163 80 236 141 378 310 8 10
12 23 9 31 -6 17 -70 10 -237 -26 -63 -13 -147 -27 -185 -31 -72 -7 -272 7
-335 24 -19 5 -73 19 -120 30 -92 23 -143 53 -224 132 -27 26 -53 48 -58 48
-5 0 -4 9 2 19 12 23 13 71 2 88 -5 8 -8 0 -9 -20z m273 -362 c61 -11 92 -12
143 -4 75 12 114 5 156 -26 16 -13 50 -27 75 -32 27 -5 45 -14 45 -22 0 -47
-235 -53 -363 -9 -43 14 -109 57 -136 87 -23 25 -20 25 80 6z m-72 -61 c15
-27 27 -33 61 -35 17 -1 -1 -5 -40 -9 -38 -4 -74 -4 -78 0 -12 10 21 72 35 68
7 -3 16 -13 22 -24z m199 -104 c4 0 7 -4 7 -10 0 -13 -61 -1 -79 16 -11 10 -7
11 25 4 21 -5 42 -10 47 -10z m-137 -9 c32 -25 99 -33 202 -23 45 4 82 4 82 0
0 -4 10 -8 23 -7 21 0 21 1 2 9 -18 8 -18 9 6 9 33 1 56 -17 64 -50 9 -35 -6
-40 -127 -46 -112 -6 -179 10 -240 58 -20 16 -42 29 -47 29 -6 0 -11 2 -11 4
0 2 -3 11 -6 20 -9 23 22 21 52 -3z"/>
<path d="M6848 2425 c2 -14 6 -25 8 -25 2 0 4 11 4 25 0 14 -4 25 -9 25 -4 0
-6 -11 -3 -25z"/>
<path d="M7220 2426 c0 -2 7 -9 15 -16 9 -7 15 -8 15 -2 0 5 -7 12 -15 16 -8
3 -15 4 -15 2z"/>
<path d="M7333 2167 c24 -22 37 -44 37 -60 0 -14 4 -28 9 -31 16 -11 -9 79
-27 92 -41 32 -54 31 -19 -1z"/>
<path d="M7220 2103 c0 -23 16 -48 23 -37 5 10 -9 54 -18 54 -3 0 -5 -8 -5
-17z"/>
<path d="M7304 2086 c-3 -14 -1 -33 5 -43 10 -17 10 -17 11 3 0 11 5 25 11 31
12 12 4 33 -11 33 -5 0 -12 -11 -16 -24z"/>
<path d="M6764 2349 c-3 -6 -1 -16 5 -22 8 -8 11 -5 11 11 0 24 -5 28 -16 11z"/>
<path d="M7362 861 c4 -13 18 -16 19 -4 0 4 -5 9 -11 12 -7 2 -11 -2 -8 -8z"/>
<path d="M4535 2830 c-3 -5 -1 -10 4 -10 6 0 11 5 11 10 0 6 -2 10 -4 10 -3 0
-8 -4 -11 -10z"/>
<path d="M4991 2816 c4 -5 189 -46 207 -46 3 0 2 4 -3 9 -13 13 -216 50 -204
37z"/>
<path d="M5218 2750 c-7 -24 -3 -38 8 -28 3 4 4 17 2 30 l-3 23 -7 -25z"/>
<path d="M4636 2731 c-4 -7 -5 -15 -2 -18 9 -9 19 4 14 18 -4 11 -6 11 -12 0z"/>
<path d="M5158 2723 c7 -3 16 -2 19 1 4 3 -2 6 -13 5 -11 0 -14 -3 -6 -6z"/>
<path d="M4987 2713 c-10 -10 -8 -53 2 -53 10 0 21 24 21 46 0 15 -12 19 -23
7z"/>
<path d="M5062 2697 c-20 -24 -7 -69 29 -98 35 -29 34 -32 -13 -29 -16 1 -28
-1 -28 -5 0 -10 70 -36 80 -30 19 12 10 66 -15 91 -14 14 -25 29 -25 34 0 15
27 12 33 -2 3 -7 6 2 6 20 1 29 -2 32 -28 32 -16 0 -33 -6 -39 -13z"/>
<path d="M4606 2594 c-9 -23 -8 -24 14 -24 13 0 20 7 20 20 0 24 -25 27 -34 4z"/>
<path d="M4695 2570 c-3 -5 -1 -10 4 -10 6 0 11 5 11 10 0 6 -2 10 -4 10 -3 0
-8 -4 -11 -10z"/>
<path d="M4980 2531 c0 -13 59 -24 91 -18 16 3 12 5 -14 6 -21 0 -47 6 -58 11
-12 7 -19 7 -19 1z"/>
<path d="M5568 2461 c-5 -35 -8 -110 -8 -166 0 -66 -5 -118 -15 -146 -16 -44
-14 -69 5 -69 5 0 9 3 8 8 -1 4 4 39 10 77 8 40 12 131 10 215 -3 124 -4 136
-10 81z"/>
<path d="M5400 1735 c-44 -43 -74 -49 -363 -70 -206 -14 -387 -41 -387 -57 0
-11 -5 -11 150 13 74 11 209 25 299 30 90 5 181 13 202 18 33 8 38 7 28 -5
-38 -47 -364 -219 -487 -258 -75 -24 -347 -123 -507 -186 -44 -17 -100 -38
-125 -45 -69 -20 -166 -59 -260 -103 -47 -21 -116 -52 -155 -67 -38 -15 -131
-58 -205 -95 -316 -157 -426 -212 -620 -311 -249 -126 -505 -249 -521 -249 -6
0 -23 -7 -37 -15 -30 -16 -176 -76 -322 -132 -273 -104 -517 -182 -604 -193
-63 -8 -57 -8 54 -6 111 3 135 7 209 34 47 17 87 30 89 28 2 -2 -4 -18 -13
-35 -8 -17 -11 -31 -5 -31 5 0 19 18 30 41 16 31 33 46 73 65 29 13 58 24 65
24 7 0 43 14 80 31 37 17 105 44 152 61 47 16 94 35 105 42 11 7 54 25 95 41
41 15 105 43 143 62 l67 33 0 -37 c0 -20 -5 -73 -10 -117 -6 -45 -14 -118 -18
-163 -7 -75 -6 -83 9 -83 14 0 18 14 22 87 5 91 24 272 32 309 3 14 30 32 87
59 194 91 562 279 588 300 8 7 26 16 40 20 14 4 104 47 200 95 96 48 209 102
250 119 94 40 92 39 225 100 61 27 142 59 180 71 39 11 106 34 151 50 45 17
84 30 88 30 3 0 29 11 58 25 28 14 56 25 60 25 5 0 28 9 51 19 24 11 56 23 72
27 43 10 143 43 163 54 9 5 55 25 102 45 47 20 105 49 130 64 25 16 71 41 103
57 99 48 236 173 225 204 -2 6 -19 -6 -38 -25z"/>
<path d="M6482 1649 c6 -16 12 -28 15 -26 7 7 -8 57 -18 57 -4 0 -3 -14 3 -31z"/>
<path d="M6125 1581 c-100 -46 -107 -50 -128 -83 -21 -33 -43 -164 -34 -200
12 -45 94 -125 165 -160 55 -27 78 -33 133 -33 56 0 72 4 107 29 35 24 42 34
40 60 -3 49 -13 55 -18 11 -5 -37 -7 -40 -35 -38 -25 2 -27 1 -10 -6 18 -8 16
-11 -19 -26 -77 -33 -193 4 -275 87 -62 63 -74 92 -68 155 8 76 39 136 82 156
20 9 38 17 40 17 3 0 5 -25 5 -55 0 -75 31 -151 82 -200 25 -24 35 -30 25 -15
-50 73 -59 89 -73 137 -20 70 -11 136 24 163 48 38 46 40 133 -163 23 -54 43
-96 46 -94 2 3 -12 47 -32 98 -20 52 -43 114 -52 139 -16 45 -29 60 -48 59 -5
-1 -46 -17 -90 -38z"/>
<path d="M6590 1570 c-8 -5 -39 -15 -69 -21 -44 -9 -51 -13 -40 -24 15 -14 89
-47 89 -40 0 3 -16 13 -35 23 l-36 18 71 22 c38 13 70 25 70 28 0 8 -35 4 -50
-6z"/>
<path d="M6770 1489 c0 -11 5 -17 10 -14 6 3 10 13 10 21 0 8 -4 14 -10 14 -5
0 -10 -9 -10 -21z"/>
<path d="M6720 1482 c0 -13 -10 -33 -23 -45 -13 -12 -16 -17 -7 -11 8 6 23 14
33 17 19 7 22 24 7 47 -8 12 -10 11 -10 -8z"/>
<path d="M6630 1239 c0 -5 5 -7 10 -4 6 3 10 8 10 11 0 2 -4 4 -10 4 -5 0 -10
-5 -10 -11z"/>
<path d="M0 410 c0 -60 6 -83 43 -167 24 -54 54 -131 67 -171 21 -60 28 -72
47 -72 22 0 21 1 -13 98 -32 87 -71 181 -93 223 -5 8 -17 47 -26 87 -10 40
-19 72 -21 72 -2 0 -4 -31 -4 -70z"/>
<path d="M7339 333 c6 -12 19 -28 29 -35 31 -23 212 -254 212 -270 0 -4 10
-12 22 -19 14 -8 3 15 -37 72 -94 135 -147 198 -214 254 l-24 20 12 -22z"/>
<path d="M6868 188 c-5 -44 -4 -68 2 -68 11 0 18 70 8 76 -4 3 -9 -1 -10 -8z"/>
<path d="M10080 80 l0 -80 80 0 80 0 0 80 0 80 -80 0 -80 0 0 -80z"/>
</g>
</svg>
